<mxfile host="app.diagrams.net" modified="2022-07-16T11:32:25.372Z" agent="5.0 (Macintosh; Intel Mac OS X 10_15_7) AppleWebKit/537.36 (KHTML, like Gecko) Chrome/103.0.0.0 Safari/537.36" etag="BbqCDcKknEmlnZtDu1S_" version="20.0.4" type="github">
  <diagram id="hH0bAcr99A87JPYk2D43" name="Page-1">
    <mxGraphModel dx="1424" dy="840" grid="1" gridSize="10" guides="1" tooltips="1" connect="1" arrows="1" fold="1" page="1" pageScale="1" pageWidth="1169" pageHeight="827" math="0" shadow="0">
      <root>
        <mxCell id="0" />
        <mxCell id="1" parent="0" />
        <mxCell id="Aghm7gq7efIWi6fhhCrB-140" value="" style="rounded=0;whiteSpace=wrap;html=1;fontSize=18;strokeColor=default;" vertex="1" parent="1">
          <mxGeometry x="860" y="3615" width="276" height="415" as="geometry" />
        </mxCell>
        <mxCell id="Aghm7gq7efIWi6fhhCrB-3" value="&lt;font style=&quot;font-size: 18px;&quot;&gt;Ansible - A simple IT Operations Use case&lt;/font&gt;" style="rounded=0;whiteSpace=wrap;html=1;fillColor=#dae8fc;strokeColor=#6c8ebf;" vertex="1" parent="1">
          <mxGeometry x="17" y="40" width="1135" height="40" as="geometry" />
        </mxCell>
        <mxCell id="Aghm7gq7efIWi6fhhCrB-4" value="Admin" style="shape=umlActor;verticalLabelPosition=bottom;verticalAlign=top;html=1;outlineConnect=0;fontSize=18;" vertex="1" parent="1">
          <mxGeometry x="17" y="430" width="50" height="90" as="geometry" />
        </mxCell>
        <mxCell id="Aghm7gq7efIWi6fhhCrB-5" value="Tasks (What to do?)" style="text;html=1;strokeColor=none;fillColor=none;align=center;verticalAlign=middle;whiteSpace=wrap;rounded=0;fontSize=18;" vertex="1" parent="1">
          <mxGeometry x="157" y="350" width="200" height="30" as="geometry" />
        </mxCell>
        <mxCell id="Aghm7gq7efIWi6fhhCrB-6" value="Servers (Where to do?)" style="text;html=1;strokeColor=none;fillColor=none;align=center;verticalAlign=middle;whiteSpace=wrap;rounded=0;fontSize=18;" vertex="1" parent="1">
          <mxGeometry x="650" y="350" width="200" height="30" as="geometry" />
        </mxCell>
        <mxCell id="Aghm7gq7efIWi6fhhCrB-8" value="Admin" style="shape=umlActor;verticalLabelPosition=bottom;verticalAlign=top;html=1;outlineConnect=0;fontSize=18;fillColor=#b0e3e6;strokeColor=#0e8088;" vertex="1" parent="1">
          <mxGeometry x="33" y="3440" width="50" height="90" as="geometry" />
        </mxCell>
        <mxCell id="Aghm7gq7efIWi6fhhCrB-9" value="Step 1:&amp;nbsp; Collect the details of the server(s).&amp;nbsp;&lt;br&gt;&lt;span style=&quot;white-space: pre;&quot;&gt;	&lt;span style=&quot;white-space: pre;&quot;&gt;	&lt;/span&gt;&lt;/span&gt;- Hostname / IP Address&lt;br&gt;&lt;span style=&quot;white-space: pre;&quot;&gt;	&lt;/span&gt;&lt;span style=&quot;white-space: pre;&quot;&gt;	&lt;/span&gt;- User Name and Password" style="text;html=1;strokeColor=#d6b656;fillColor=#fff2cc;align=left;verticalAlign=middle;whiteSpace=wrap;rounded=0;fontSize=18;" vertex="1" parent="1">
          <mxGeometry x="226" y="3442" width="450" height="110" as="geometry" />
        </mxCell>
        <mxCell id="Aghm7gq7efIWi6fhhCrB-10" value="Step 2:&amp;nbsp; Login in to the server(s).&amp;nbsp;&lt;br&gt;&lt;span style=&quot;white-space: pre;&quot;&gt;	&lt;span style=&quot;white-space: pre;&quot;&gt;	&lt;/span&gt;&lt;/span&gt;- SSH for Linux / Unix based servers&lt;br&gt;&lt;span style=&quot;white-space: pre;&quot;&gt;	&lt;/span&gt;&lt;span style=&quot;white-space: pre;&quot;&gt;	&lt;/span&gt;- Remote desktop for Windows" style="text;html=1;strokeColor=#d79b00;fillColor=#ffe6cc;align=left;verticalAlign=middle;whiteSpace=wrap;rounded=0;fontSize=18;" vertex="1" parent="1">
          <mxGeometry x="226" y="3590" width="450" height="110" as="geometry" />
        </mxCell>
        <mxCell id="Aghm7gq7efIWi6fhhCrB-11" value="Step 3:&amp;nbsp; Perform the tasks&amp;nbsp;&lt;br&gt;&lt;span style=&quot;white-space: pre;&quot;&gt;	&lt;span style=&quot;white-space: pre;&quot;&gt;	&lt;/span&gt;&lt;/span&gt;- Software Installation ( Example: install&amp;nbsp; &amp;nbsp; &lt;span style=&quot;white-space: pre;&quot;&gt;	&lt;/span&gt;&lt;span style=&quot;white-space: pre;&quot;&gt;	&lt;/span&gt;&lt;span style=&quot;white-space: pre;&quot;&gt;	&lt;/span&gt;Apache server, Docker Engine, etc)&lt;br&gt;&lt;span style=&quot;white-space: pre;&quot;&gt;	&lt;/span&gt;&lt;span style=&quot;white-space: pre;&quot;&gt;	&lt;/span&gt;- Configurations" style="text;html=1;strokeColor=#6c8ebf;fillColor=#dae8fc;align=left;verticalAlign=middle;whiteSpace=wrap;rounded=0;fontSize=18;" vertex="1" parent="1">
          <mxGeometry x="226" y="3742" width="450" height="110" as="geometry" />
        </mxCell>
        <mxCell id="Aghm7gq7efIWi6fhhCrB-13" value="Step 3 dependency:&amp;nbsp; To perform the tasks, we need &lt;span style=&quot;white-space: pre;&quot;&gt;	&lt;/span&gt;&lt;span style=&quot;white-space: pre;&quot;&gt;	&lt;/span&gt;&lt;span style=&quot;white-space: pre;&quot;&gt;	&lt;/span&gt;&lt;span style=&quot;white-space: pre;&quot;&gt;	&lt;/span&gt;supporting OS packages or tools.&amp;nbsp;&lt;br&gt;&lt;span style=&quot;white-space: pre;&quot;&gt;	&lt;span style=&quot;white-space: pre;&quot;&gt;	&lt;/span&gt;&lt;span style=&quot;white-space: pre;&quot;&gt;	&lt;/span&gt;&lt;span style=&quot;white-space: pre;&quot;&gt;	&lt;/span&gt;&lt;/span&gt;- Example: yum, apt-get etc&amp;nbsp;" style="text;html=1;strokeColor=#6c8ebf;fillColor=#dae8fc;align=left;verticalAlign=middle;whiteSpace=wrap;rounded=0;fontSize=18;" vertex="1" parent="1">
          <mxGeometry x="226" y="3891" width="450" height="110" as="geometry" />
        </mxCell>
        <mxCell id="Aghm7gq7efIWi6fhhCrB-14" value="Sofware Installation&lt;br&gt;&lt;span style=&quot;white-space: pre;&quot;&gt;	&lt;/span&gt;- Install Apache server, Docker Engine, etc&lt;br&gt;Environment setup / Configurations&lt;br&gt;&lt;span style=&quot;white-space: pre;&quot;&gt;	&lt;/span&gt;- create directories, copy files, change &lt;span style=&quot;white-space: pre;&quot;&gt;	&lt;/span&gt;permissions etc" style="text;html=1;strokeColor=#6c8ebf;fillColor=#dae8fc;align=left;verticalAlign=middle;whiteSpace=wrap;rounded=0;fontSize=18;" vertex="1" parent="1">
          <mxGeometry x="137" y="430" width="410" height="110" as="geometry" />
        </mxCell>
        <mxCell id="Aghm7gq7efIWi6fhhCrB-16" value="2 Ubuntu" style="rounded=1;whiteSpace=wrap;html=1;fontSize=18;strokeColor=#82b366;fillColor=#d5e8d4;" vertex="1" parent="1">
          <mxGeometry x="660" y="420" width="120" height="60" as="geometry" />
        </mxCell>
        <mxCell id="Aghm7gq7efIWi6fhhCrB-17" value="2 CentOS" style="rounded=1;whiteSpace=wrap;html=1;fontSize=18;strokeColor=#82b366;fillColor=#d5e8d4;" vertex="1" parent="1">
          <mxGeometry x="660" y="515" width="120" height="60" as="geometry" />
        </mxCell>
        <mxCell id="Aghm7gq7efIWi6fhhCrB-18" value="2 Windows Server" style="rounded=1;whiteSpace=wrap;html=1;fontSize=18;strokeColor=#82b366;fillColor=#d5e8d4;" vertex="1" parent="1">
          <mxGeometry x="660" y="610" width="120" height="60" as="geometry" />
        </mxCell>
        <mxCell id="Aghm7gq7efIWi6fhhCrB-19" value="Frequency of work" style="text;html=1;strokeColor=none;fillColor=none;align=center;verticalAlign=middle;whiteSpace=wrap;rounded=0;fontSize=18;" vertex="1" parent="1">
          <mxGeometry x="927" y="350" width="200" height="30" as="geometry" />
        </mxCell>
        <mxCell id="Aghm7gq7efIWi6fhhCrB-20" value="Once in a while" style="text;html=1;strokeColor=#6c8ebf;fillColor=#dae8fc;align=center;verticalAlign=middle;whiteSpace=wrap;rounded=0;fontSize=18;" vertex="1" parent="1">
          <mxGeometry x="952" y="434" width="150" height="30" as="geometry" />
        </mxCell>
        <mxCell id="Aghm7gq7efIWi6fhhCrB-21" value="Once in a while" style="text;html=1;strokeColor=#6c8ebf;fillColor=#dae8fc;align=center;verticalAlign=middle;whiteSpace=wrap;rounded=0;fontSize=18;" vertex="1" parent="1">
          <mxGeometry x="952" y="530" width="150" height="30" as="geometry" />
        </mxCell>
        <mxCell id="Aghm7gq7efIWi6fhhCrB-22" value="Rarely" style="text;html=1;align=center;verticalAlign=middle;whiteSpace=wrap;rounded=0;fontSize=18;fillColor=#dae8fc;strokeColor=#6c8ebf;" vertex="1" parent="1">
          <mxGeometry x="952" y="625" width="150" height="30" as="geometry" />
        </mxCell>
        <mxCell id="Aghm7gq7efIWi6fhhCrB-32" value="Admin" style="shape=umlActor;verticalLabelPosition=bottom;verticalAlign=top;html=1;outlineConnect=0;fontSize=18;" vertex="1" parent="1">
          <mxGeometry x="80" y="971" width="50" height="90" as="geometry" />
        </mxCell>
        <mxCell id="Aghm7gq7efIWi6fhhCrB-34" value="" style="endArrow=classic;html=1;rounded=0;fontSize=18;" edge="1" parent="1">
          <mxGeometry width="50" height="50" relative="1" as="geometry">
            <mxPoint x="140" y="1021" as="sourcePoint" />
            <mxPoint x="230" y="1021" as="targetPoint" />
          </mxGeometry>
        </mxCell>
        <mxCell id="Aghm7gq7efIWi6fhhCrB-35" value="Ubuntu Server 1" style="rounded=1;whiteSpace=wrap;html=1;fontSize=18;strokeColor=#82b366;fillColor=#d5e8d4;" vertex="1" parent="1">
          <mxGeometry x="250" y="991" width="140" height="60" as="geometry" />
        </mxCell>
        <mxCell id="Aghm7gq7efIWi6fhhCrB-36" value="ssh" style="text;html=1;strokeColor=none;fillColor=none;align=center;verticalAlign=middle;whiteSpace=wrap;rounded=0;fontSize=18;" vertex="1" parent="1">
          <mxGeometry x="160" y="981" width="60" height="30" as="geometry" />
        </mxCell>
        <mxCell id="Aghm7gq7efIWi6fhhCrB-37" value="Run the commands / execute script file" style="rounded=1;whiteSpace=wrap;html=1;fontSize=18;strokeColor=#6c8ebf;fillColor=#dae8fc;" vertex="1" parent="1">
          <mxGeometry x="450" y="991" width="200" height="60" as="geometry" />
        </mxCell>
        <mxCell id="Aghm7gq7efIWi6fhhCrB-39" value="" style="endArrow=classic;html=1;rounded=0;fontSize=18;" edge="1" parent="1">
          <mxGeometry width="50" height="50" relative="1" as="geometry">
            <mxPoint x="390" y="1020.33" as="sourcePoint" />
            <mxPoint x="440" y="1020" as="targetPoint" />
          </mxGeometry>
        </mxCell>
        <mxCell id="Aghm7gq7efIWi6fhhCrB-40" value="" style="endArrow=classic;html=1;rounded=0;fontSize=18;" edge="1" parent="1">
          <mxGeometry width="50" height="50" relative="1" as="geometry">
            <mxPoint x="660" y="1020.66" as="sourcePoint" />
            <mxPoint x="710" y="1020.33" as="targetPoint" />
          </mxGeometry>
        </mxCell>
        <mxCell id="Aghm7gq7efIWi6fhhCrB-41" value="Logout" style="rounded=1;whiteSpace=wrap;html=1;fontSize=18;strokeColor=#82b366;fillColor=#d5e8d4;" vertex="1" parent="1">
          <mxGeometry x="720" y="991" width="140" height="60" as="geometry" />
        </mxCell>
        <mxCell id="Aghm7gq7efIWi6fhhCrB-42" value="Ubuntu Server 2" style="rounded=1;whiteSpace=wrap;html=1;fontSize=18;strokeColor=#82b366;fillColor=#d5e8d4;" vertex="1" parent="1">
          <mxGeometry x="250" y="1081" width="140" height="60" as="geometry" />
        </mxCell>
        <mxCell id="Aghm7gq7efIWi6fhhCrB-43" value="Run the commands / execute script file" style="rounded=1;whiteSpace=wrap;html=1;fontSize=18;strokeColor=#6c8ebf;fillColor=#dae8fc;" vertex="1" parent="1">
          <mxGeometry x="450" y="1081" width="200" height="60" as="geometry" />
        </mxCell>
        <mxCell id="Aghm7gq7efIWi6fhhCrB-44" value="" style="endArrow=classic;html=1;rounded=0;fontSize=18;" edge="1" parent="1">
          <mxGeometry width="50" height="50" relative="1" as="geometry">
            <mxPoint x="390" y="1110.33" as="sourcePoint" />
            <mxPoint x="440" y="1110" as="targetPoint" />
          </mxGeometry>
        </mxCell>
        <mxCell id="Aghm7gq7efIWi6fhhCrB-45" value="" style="endArrow=classic;html=1;rounded=0;fontSize=18;" edge="1" parent="1">
          <mxGeometry width="50" height="50" relative="1" as="geometry">
            <mxPoint x="660" y="1110.6599999999999" as="sourcePoint" />
            <mxPoint x="710" y="1110.33" as="targetPoint" />
          </mxGeometry>
        </mxCell>
        <mxCell id="Aghm7gq7efIWi6fhhCrB-46" value="Logout" style="rounded=1;whiteSpace=wrap;html=1;fontSize=18;strokeColor=#82b366;fillColor=#d5e8d4;" vertex="1" parent="1">
          <mxGeometry x="720" y="1081" width="140" height="60" as="geometry" />
        </mxCell>
        <mxCell id="Aghm7gq7efIWi6fhhCrB-47" value="" style="endArrow=none;dashed=1;html=1;dashPattern=1 3;strokeWidth=2;rounded=0;fontSize=18;" edge="1" parent="1">
          <mxGeometry width="50" height="50" relative="1" as="geometry">
            <mxPoint x="605" y="750" as="sourcePoint" />
            <mxPoint x="605" y="340" as="targetPoint" />
          </mxGeometry>
        </mxCell>
        <mxCell id="Aghm7gq7efIWi6fhhCrB-48" value="" style="endArrow=none;dashed=1;html=1;dashPattern=1 3;strokeWidth=2;rounded=0;fontSize=18;" edge="1" parent="1">
          <mxGeometry width="50" height="50" relative="1" as="geometry">
            <mxPoint x="884.33" y="740" as="sourcePoint" />
            <mxPoint x="884.33" y="330" as="targetPoint" />
          </mxGeometry>
        </mxCell>
        <mxCell id="Aghm7gq7efIWi6fhhCrB-49" value="" style="endArrow=none;dashed=1;html=1;dashPattern=1 3;strokeWidth=2;rounded=0;fontSize=18;" edge="1" parent="1">
          <mxGeometry width="50" height="50" relative="1" as="geometry">
            <mxPoint x="10" y="390" as="sourcePoint" />
            <mxPoint x="1160" y="390" as="targetPoint" />
          </mxGeometry>
        </mxCell>
        <mxCell id="Aghm7gq7efIWi6fhhCrB-50" value="" style="endArrow=classic;html=1;rounded=0;fontSize=18;entryX=0;entryY=0.5;entryDx=0;entryDy=0;" edge="1" parent="1" target="Aghm7gq7efIWi6fhhCrB-16">
          <mxGeometry width="50" height="50" relative="1" as="geometry">
            <mxPoint x="550" y="500" as="sourcePoint" />
            <mxPoint x="600" y="480" as="targetPoint" />
          </mxGeometry>
        </mxCell>
        <mxCell id="Aghm7gq7efIWi6fhhCrB-51" value="" style="endArrow=classic;html=1;rounded=0;fontSize=18;entryX=0;entryY=0.5;entryDx=0;entryDy=0;" edge="1" parent="1" target="Aghm7gq7efIWi6fhhCrB-17">
          <mxGeometry width="50" height="50" relative="1" as="geometry">
            <mxPoint x="550" y="500" as="sourcePoint" />
            <mxPoint x="670" y="460" as="targetPoint" />
          </mxGeometry>
        </mxCell>
        <mxCell id="Aghm7gq7efIWi6fhhCrB-52" value="" style="endArrow=classic;html=1;rounded=0;fontSize=18;entryX=0;entryY=0.75;entryDx=0;entryDy=0;" edge="1" parent="1" target="Aghm7gq7efIWi6fhhCrB-18">
          <mxGeometry width="50" height="50" relative="1" as="geometry">
            <mxPoint x="550" y="510" as="sourcePoint" />
            <mxPoint x="670" y="555" as="targetPoint" />
          </mxGeometry>
        </mxCell>
        <mxCell id="Aghm7gq7efIWi6fhhCrB-56" value="" style="endArrow=classic;html=1;rounded=0;fontSize=18;entryX=0;entryY=0.5;entryDx=0;entryDy=0;exitX=1;exitY=0.5;exitDx=0;exitDy=0;" edge="1" parent="1" source="Aghm7gq7efIWi6fhhCrB-16" target="Aghm7gq7efIWi6fhhCrB-20">
          <mxGeometry width="50" height="50" relative="1" as="geometry">
            <mxPoint x="560" y="510" as="sourcePoint" />
            <mxPoint x="670" y="460" as="targetPoint" />
          </mxGeometry>
        </mxCell>
        <mxCell id="Aghm7gq7efIWi6fhhCrB-57" value="" style="endArrow=classic;html=1;rounded=0;fontSize=18;entryX=0;entryY=0.5;entryDx=0;entryDy=0;exitX=1;exitY=0.5;exitDx=0;exitDy=0;" edge="1" parent="1">
          <mxGeometry width="50" height="50" relative="1" as="geometry">
            <mxPoint x="780" y="545.3299999999999" as="sourcePoint" />
            <mxPoint x="952" y="544.3299999999999" as="targetPoint" />
          </mxGeometry>
        </mxCell>
        <mxCell id="Aghm7gq7efIWi6fhhCrB-58" value="" style="endArrow=classic;html=1;rounded=0;fontSize=18;entryX=0;entryY=0.5;entryDx=0;entryDy=0;exitX=1;exitY=0.5;exitDx=0;exitDy=0;" edge="1" parent="1">
          <mxGeometry width="50" height="50" relative="1" as="geometry">
            <mxPoint x="780" y="640.3299999999999" as="sourcePoint" />
            <mxPoint x="952" y="639.3299999999999" as="targetPoint" />
          </mxGeometry>
        </mxCell>
        <mxCell id="Aghm7gq7efIWi6fhhCrB-59" value="" style="endArrow=classic;html=1;rounded=0;fontSize=18;entryX=0;entryY=0.5;entryDx=0;entryDy=0;" edge="1" parent="1" target="Aghm7gq7efIWi6fhhCrB-42">
          <mxGeometry width="50" height="50" relative="1" as="geometry">
            <mxPoint x="180" y="1031" as="sourcePoint" />
            <mxPoint x="600" y="801" as="targetPoint" />
            <Array as="points">
              <mxPoint x="180" y="1111" />
            </Array>
          </mxGeometry>
        </mxCell>
        <mxCell id="Aghm7gq7efIWi6fhhCrB-60" value="CentOS Server 1" style="rounded=1;whiteSpace=wrap;html=1;fontSize=18;strokeColor=#82b366;fillColor=#d5e8d4;" vertex="1" parent="1">
          <mxGeometry x="250" y="1181" width="140" height="60" as="geometry" />
        </mxCell>
        <mxCell id="Aghm7gq7efIWi6fhhCrB-61" value="Update the existing" style="rounded=1;whiteSpace=wrap;html=1;fontSize=18;strokeColor=#6c8ebf;fillColor=#dae8fc;" vertex="1" parent="1">
          <mxGeometry x="450" y="1181" width="200" height="60" as="geometry" />
        </mxCell>
        <mxCell id="Aghm7gq7efIWi6fhhCrB-62" value="" style="endArrow=classic;html=1;rounded=0;fontSize=18;" edge="1" parent="1">
          <mxGeometry width="50" height="50" relative="1" as="geometry">
            <mxPoint x="390" y="1210.33" as="sourcePoint" />
            <mxPoint x="440" y="1210" as="targetPoint" />
          </mxGeometry>
        </mxCell>
        <mxCell id="Aghm7gq7efIWi6fhhCrB-63" value="" style="endArrow=classic;html=1;rounded=0;fontSize=18;" edge="1" parent="1">
          <mxGeometry width="50" height="50" relative="1" as="geometry">
            <mxPoint x="660" y="1210.6599999999999" as="sourcePoint" />
            <mxPoint x="710" y="1210.33" as="targetPoint" />
          </mxGeometry>
        </mxCell>
        <mxCell id="Aghm7gq7efIWi6fhhCrB-64" value="Logout" style="rounded=1;whiteSpace=wrap;html=1;fontSize=18;strokeColor=#82b366;fillColor=#d5e8d4;" vertex="1" parent="1">
          <mxGeometry x="720" y="1181" width="140" height="60" as="geometry" />
        </mxCell>
        <mxCell id="Aghm7gq7efIWi6fhhCrB-65" value="" style="endArrow=classic;html=1;rounded=0;fontSize=18;entryX=0;entryY=0.5;entryDx=0;entryDy=0;" edge="1" parent="1" target="Aghm7gq7efIWi6fhhCrB-60">
          <mxGeometry width="50" height="50" relative="1" as="geometry">
            <mxPoint x="180" y="1111" as="sourcePoint" />
            <mxPoint x="250" y="1191" as="targetPoint" />
            <Array as="points">
              <mxPoint x="180" y="1211" />
            </Array>
          </mxGeometry>
        </mxCell>
        <mxCell id="Aghm7gq7efIWi6fhhCrB-66" value="&lt;font style=&quot;font-size: 18px;&quot;&gt;Assuming Adam does manual operation&amp;nbsp;&lt;/font&gt;" style="rounded=0;whiteSpace=wrap;html=1;fillColor=#ffe6cc;strokeColor=#d79b00;" vertex="1" parent="1">
          <mxGeometry x="17" y="890" width="400" height="40" as="geometry" />
        </mxCell>
        <mxCell id="Aghm7gq7efIWi6fhhCrB-67" value="......" style="rounded=1;whiteSpace=wrap;html=1;fontSize=18;strokeColor=#82b366;fillColor=#d5e8d4;" vertex="1" parent="1">
          <mxGeometry x="250" y="1274" width="140" height="60" as="geometry" />
        </mxCell>
        <mxCell id="Aghm7gq7efIWi6fhhCrB-68" value="......" style="rounded=1;whiteSpace=wrap;html=1;fontSize=18;strokeColor=#6c8ebf;fillColor=#dae8fc;" vertex="1" parent="1">
          <mxGeometry x="450" y="1274" width="200" height="60" as="geometry" />
        </mxCell>
        <mxCell id="Aghm7gq7efIWi6fhhCrB-69" value="" style="endArrow=classic;html=1;rounded=0;fontSize=18;" edge="1" parent="1">
          <mxGeometry width="50" height="50" relative="1" as="geometry">
            <mxPoint x="390" y="1303.33" as="sourcePoint" />
            <mxPoint x="440" y="1303" as="targetPoint" />
          </mxGeometry>
        </mxCell>
        <mxCell id="Aghm7gq7efIWi6fhhCrB-70" value="" style="endArrow=classic;html=1;rounded=0;fontSize=18;" edge="1" parent="1">
          <mxGeometry width="50" height="50" relative="1" as="geometry">
            <mxPoint x="660" y="1303.6599999999999" as="sourcePoint" />
            <mxPoint x="710" y="1303.33" as="targetPoint" />
          </mxGeometry>
        </mxCell>
        <mxCell id="Aghm7gq7efIWi6fhhCrB-71" value="....." style="rounded=1;whiteSpace=wrap;html=1;fontSize=18;strokeColor=#82b366;fillColor=#d5e8d4;" vertex="1" parent="1">
          <mxGeometry x="720" y="1274" width="140" height="60" as="geometry" />
        </mxCell>
        <mxCell id="Aghm7gq7efIWi6fhhCrB-72" value="" style="endArrow=classic;html=1;rounded=0;fontSize=18;entryX=0;entryY=0.5;entryDx=0;entryDy=0;" edge="1" target="Aghm7gq7efIWi6fhhCrB-67" parent="1">
          <mxGeometry width="50" height="50" relative="1" as="geometry">
            <mxPoint x="180" y="1204" as="sourcePoint" />
            <mxPoint x="250" y="1284" as="targetPoint" />
            <Array as="points">
              <mxPoint x="180" y="1304" />
            </Array>
          </mxGeometry>
        </mxCell>
        <mxCell id="Aghm7gq7efIWi6fhhCrB-73" value="Adam is working in a small IT Operation team, who configures and handles very few servers.&lt;br&gt;Adam does not follow Agile / Automation.&amp;nbsp;&lt;br&gt;He gets the task from his Manager and executes it manually.&amp;nbsp;" style="text;html=1;strokeColor=none;fillColor=none;align=left;verticalAlign=middle;whiteSpace=wrap;rounded=0;fontSize=18;" vertex="1" parent="1">
          <mxGeometry x="50" y="170" width="830" height="70" as="geometry" />
        </mxCell>
        <mxCell id="Aghm7gq7efIWi6fhhCrB-76" value="Okay for managing couple of servers but doing things without out automation is not an effective way of working.&amp;nbsp;&lt;br&gt;Time consuming.&lt;br&gt;Room for errors.&lt;br&gt;Not so transparent, so other team members may not pick up the tasks.&amp;nbsp;&amp;nbsp;" style="text;html=1;strokeColor=none;fillColor=none;align=left;verticalAlign=middle;whiteSpace=wrap;rounded=0;fontSize=18;" vertex="1" parent="1">
          <mxGeometry x="60" y="1390" width="610" height="130" as="geometry" />
        </mxCell>
        <mxCell id="Aghm7gq7efIWi6fhhCrB-77" value="&lt;font style=&quot;font-size: 18px;&quot;&gt;Small IT setup&lt;/font&gt;" style="rounded=0;whiteSpace=wrap;html=1;fillColor=#ffe6cc;strokeColor=#d79b00;" vertex="1" parent="1">
          <mxGeometry x="10" y="290" width="380" height="40" as="geometry" />
        </mxCell>
        <mxCell id="Aghm7gq7efIWi6fhhCrB-78" value="Admin" style="shape=umlActor;verticalLabelPosition=bottom;verticalAlign=top;html=1;outlineConnect=0;fontSize=18;" vertex="1" parent="1">
          <mxGeometry x="19" y="1980" width="50" height="90" as="geometry" />
        </mxCell>
        <mxCell id="Aghm7gq7efIWi6fhhCrB-79" value="Sofware Installation&lt;br&gt;&lt;span style=&quot;white-space: pre;&quot;&gt;	&lt;/span&gt;- Install Apache server, Docker Engine, etc&lt;br&gt;Environment setup / Configurations&lt;br&gt;&lt;span style=&quot;white-space: pre;&quot;&gt;	&lt;/span&gt;- create directories, copy files, change &lt;span style=&quot;white-space: pre;&quot;&gt;	&lt;/span&gt;permissions etc" style="text;html=1;strokeColor=#6c8ebf;fillColor=#dae8fc;align=left;verticalAlign=middle;whiteSpace=wrap;rounded=0;fontSize=18;" vertex="1" parent="1">
          <mxGeometry x="139" y="1980" width="410" height="110" as="geometry" />
        </mxCell>
        <mxCell id="Aghm7gq7efIWi6fhhCrB-80" value="Maintain the servers&lt;br&gt;&lt;span style=&quot;white-space: pre;&quot;&gt;	&lt;/span&gt;- Update new versions&lt;br&gt;&lt;span style=&quot;white-space: pre;&quot;&gt;	&lt;/span&gt;- Handle change requests&lt;br&gt;&lt;span style=&quot;white-space: pre;&quot;&gt;	&lt;/span&gt;- resolve errors and failures" style="text;html=1;strokeColor=#6c8ebf;fillColor=#dae8fc;align=left;verticalAlign=middle;whiteSpace=wrap;rounded=0;fontSize=18;" vertex="1" parent="1">
          <mxGeometry x="139" y="2120" width="410" height="110" as="geometry" />
        </mxCell>
        <mxCell id="Aghm7gq7efIWi6fhhCrB-81" value="50 Ubuntu" style="rounded=1;whiteSpace=wrap;html=1;fontSize=18;strokeColor=#82b366;fillColor=#d5e8d4;" vertex="1" parent="1">
          <mxGeometry x="662" y="1970" width="120" height="60" as="geometry" />
        </mxCell>
        <mxCell id="Aghm7gq7efIWi6fhhCrB-82" value="50 CentOS" style="rounded=1;whiteSpace=wrap;html=1;fontSize=18;strokeColor=#82b366;fillColor=#d5e8d4;" vertex="1" parent="1">
          <mxGeometry x="662" y="2065" width="120" height="60" as="geometry" />
        </mxCell>
        <mxCell id="Aghm7gq7efIWi6fhhCrB-83" value="10 Windows Server" style="rounded=1;whiteSpace=wrap;html=1;fontSize=18;strokeColor=#82b366;fillColor=#d5e8d4;" vertex="1" parent="1">
          <mxGeometry x="662" y="2160" width="120" height="60" as="geometry" />
        </mxCell>
        <mxCell id="Aghm7gq7efIWi6fhhCrB-84" value="Mostly daily" style="text;html=1;strokeColor=#6c8ebf;fillColor=#dae8fc;align=center;verticalAlign=middle;whiteSpace=wrap;rounded=0;fontSize=18;" vertex="1" parent="1">
          <mxGeometry x="954" y="1984" width="150" height="30" as="geometry" />
        </mxCell>
        <mxCell id="Aghm7gq7efIWi6fhhCrB-85" value="Mostly daiy" style="text;html=1;strokeColor=#6c8ebf;fillColor=#dae8fc;align=center;verticalAlign=middle;whiteSpace=wrap;rounded=0;fontSize=18;" vertex="1" parent="1">
          <mxGeometry x="954" y="2080" width="150" height="30" as="geometry" />
        </mxCell>
        <mxCell id="Aghm7gq7efIWi6fhhCrB-86" value="Most Frequently" style="text;html=1;align=center;verticalAlign=middle;whiteSpace=wrap;rounded=0;fontSize=18;fillColor=#dae8fc;strokeColor=#6c8ebf;" vertex="1" parent="1">
          <mxGeometry x="954" y="2175" width="150" height="30" as="geometry" />
        </mxCell>
        <mxCell id="Aghm7gq7efIWi6fhhCrB-87" value="" style="endArrow=classic;html=1;rounded=0;fontSize=18;entryX=0;entryY=0.5;entryDx=0;entryDy=0;" edge="1" target="Aghm7gq7efIWi6fhhCrB-81" parent="1">
          <mxGeometry width="50" height="50" relative="1" as="geometry">
            <mxPoint x="552" y="2050" as="sourcePoint" />
            <mxPoint x="602" y="2030" as="targetPoint" />
          </mxGeometry>
        </mxCell>
        <mxCell id="Aghm7gq7efIWi6fhhCrB-88" value="" style="endArrow=classic;html=1;rounded=0;fontSize=18;entryX=0;entryY=0.5;entryDx=0;entryDy=0;" edge="1" target="Aghm7gq7efIWi6fhhCrB-82" parent="1">
          <mxGeometry width="50" height="50" relative="1" as="geometry">
            <mxPoint x="552" y="2050" as="sourcePoint" />
            <mxPoint x="672" y="2010" as="targetPoint" />
          </mxGeometry>
        </mxCell>
        <mxCell id="Aghm7gq7efIWi6fhhCrB-89" value="" style="endArrow=classic;html=1;rounded=0;fontSize=18;entryX=0;entryY=0.75;entryDx=0;entryDy=0;" edge="1" target="Aghm7gq7efIWi6fhhCrB-83" parent="1">
          <mxGeometry width="50" height="50" relative="1" as="geometry">
            <mxPoint x="552" y="2060" as="sourcePoint" />
            <mxPoint x="672" y="2105" as="targetPoint" />
          </mxGeometry>
        </mxCell>
        <mxCell id="Aghm7gq7efIWi6fhhCrB-90" value="" style="endArrow=classic;html=1;rounded=0;fontSize=18;entryX=0;entryY=0.5;entryDx=0;entryDy=0;exitX=1;exitY=0.5;exitDx=0;exitDy=0;" edge="1" source="Aghm7gq7efIWi6fhhCrB-81" target="Aghm7gq7efIWi6fhhCrB-84" parent="1">
          <mxGeometry width="50" height="50" relative="1" as="geometry">
            <mxPoint x="562" y="2060" as="sourcePoint" />
            <mxPoint x="672" y="2010" as="targetPoint" />
          </mxGeometry>
        </mxCell>
        <mxCell id="Aghm7gq7efIWi6fhhCrB-91" value="" style="endArrow=classic;html=1;rounded=0;fontSize=18;entryX=0;entryY=0.5;entryDx=0;entryDy=0;exitX=1;exitY=0.5;exitDx=0;exitDy=0;" edge="1" parent="1">
          <mxGeometry width="50" height="50" relative="1" as="geometry">
            <mxPoint x="782" y="2095.33" as="sourcePoint" />
            <mxPoint x="954" y="2094.33" as="targetPoint" />
          </mxGeometry>
        </mxCell>
        <mxCell id="Aghm7gq7efIWi6fhhCrB-92" value="" style="endArrow=classic;html=1;rounded=0;fontSize=18;entryX=0;entryY=0.5;entryDx=0;entryDy=0;exitX=1;exitY=0.5;exitDx=0;exitDy=0;" edge="1" parent="1">
          <mxGeometry width="50" height="50" relative="1" as="geometry">
            <mxPoint x="782" y="2190.33" as="sourcePoint" />
            <mxPoint x="954" y="2189.33" as="targetPoint" />
          </mxGeometry>
        </mxCell>
        <mxCell id="Aghm7gq7efIWi6fhhCrB-99" value="Tasks (What to do?)" style="text;html=1;strokeColor=none;fillColor=none;align=center;verticalAlign=middle;whiteSpace=wrap;rounded=0;fontSize=18;" vertex="1" parent="1">
          <mxGeometry x="157" y="1900" width="200" height="30" as="geometry" />
        </mxCell>
        <mxCell id="Aghm7gq7efIWi6fhhCrB-100" value="" style="endArrow=none;dashed=1;html=1;dashPattern=1 3;strokeWidth=2;rounded=0;fontSize=18;" edge="1" parent="1">
          <mxGeometry width="50" height="50" relative="1" as="geometry">
            <mxPoint x="10" y="1940" as="sourcePoint" />
            <mxPoint x="1160" y="1940" as="targetPoint" />
          </mxGeometry>
        </mxCell>
        <mxCell id="Aghm7gq7efIWi6fhhCrB-101" value="" style="endArrow=none;dashed=1;html=1;dashPattern=1 3;strokeWidth=2;rounded=0;fontSize=18;" edge="1" parent="1">
          <mxGeometry width="50" height="50" relative="1" as="geometry">
            <mxPoint x="605" y="2300" as="sourcePoint" />
            <mxPoint x="605" y="1890" as="targetPoint" />
          </mxGeometry>
        </mxCell>
        <mxCell id="Aghm7gq7efIWi6fhhCrB-102" value="Servers (Where to do?)" style="text;html=1;strokeColor=none;fillColor=none;align=center;verticalAlign=middle;whiteSpace=wrap;rounded=0;fontSize=18;" vertex="1" parent="1">
          <mxGeometry x="650" y="1900" width="200" height="30" as="geometry" />
        </mxCell>
        <mxCell id="Aghm7gq7efIWi6fhhCrB-103" value="" style="endArrow=none;dashed=1;html=1;dashPattern=1 3;strokeWidth=2;rounded=0;fontSize=18;" edge="1" parent="1">
          <mxGeometry width="50" height="50" relative="1" as="geometry">
            <mxPoint x="884.3299999999999" y="2290" as="sourcePoint" />
            <mxPoint x="884.3299999999999" y="1880" as="targetPoint" />
          </mxGeometry>
        </mxCell>
        <mxCell id="Aghm7gq7efIWi6fhhCrB-104" value="Frequency of work" style="text;html=1;strokeColor=none;fillColor=none;align=center;verticalAlign=middle;whiteSpace=wrap;rounded=0;fontSize=18;" vertex="1" parent="1">
          <mxGeometry x="927" y="1900" width="200" height="30" as="geometry" />
        </mxCell>
        <mxCell id="Aghm7gq7efIWi6fhhCrB-105" value="&lt;font style=&quot;font-size: 18px;&quot;&gt;Large IT setup&lt;/font&gt;" style="rounded=0;whiteSpace=wrap;html=1;fillColor=#ffe6cc;strokeColor=#d79b00;" vertex="1" parent="1">
          <mxGeometry x="10" y="1680" width="380" height="40" as="geometry" />
        </mxCell>
        <mxCell id="Aghm7gq7efIWi6fhhCrB-106" value="" style="endArrow=none;html=1;rounded=0;fontSize=18;" edge="1" parent="1">
          <mxGeometry width="50" height="50" relative="1" as="geometry">
            <mxPoint x="10" y="1590" as="sourcePoint" />
            <mxPoint x="1160" y="1590" as="targetPoint" />
          </mxGeometry>
        </mxCell>
        <mxCell id="Aghm7gq7efIWi6fhhCrB-107" value="Adam has joined a different team with Large IT setup.&amp;nbsp;&lt;br&gt;He has handle more number of servers along with his team mates.&amp;nbsp;&lt;br&gt;He has to be agile and automate his tasks." style="text;html=1;strokeColor=none;fillColor=none;align=left;verticalAlign=middle;whiteSpace=wrap;rounded=0;fontSize=18;" vertex="1" parent="1">
          <mxGeometry x="37" y="1740" width="610" height="130" as="geometry" />
        </mxCell>
        <mxCell id="Aghm7gq7efIWi6fhhCrB-109" value="Adam started looking in to way to automate it and has been suggested to learn Ansible, an automation engine.&amp;nbsp;" style="text;html=1;strokeColor=none;fillColor=none;align=left;verticalAlign=middle;whiteSpace=wrap;rounded=0;fontSize=18;" vertex="1" parent="1">
          <mxGeometry x="22" y="2310" width="718" height="130" as="geometry" />
        </mxCell>
        <mxCell id="Aghm7gq7efIWi6fhhCrB-110" value="&lt;font style=&quot;font-size: 18px;&quot;&gt;Ansible - Introduction&lt;/font&gt;" style="rounded=0;whiteSpace=wrap;html=1;fillColor=#dae8fc;strokeColor=#6c8ebf;" vertex="1" parent="1">
          <mxGeometry x="10" y="2520" width="1140" height="40" as="geometry" />
        </mxCell>
        <mxCell id="Aghm7gq7efIWi6fhhCrB-111" value="&lt;span style=&quot;color: rgb(41, 41, 41); font-family: charter, Georgia, Cambria, &amp;quot;Times New Roman&amp;quot;, Times, serif; font-size: 20px; font-style: normal; font-variant-ligatures: normal; font-variant-caps: normal; font-weight: 400; letter-spacing: -0.06px; orphans: 2; text-align: start; text-indent: 0px; text-transform: none; widows: 2; word-spacing: 0px; -webkit-text-stroke-width: 0px; background-color: rgb(255, 255, 255); text-decoration-thickness: initial; text-decoration-style: initial; text-decoration-color: initial; float: none; display: inline !important;&quot;&gt;Ansible is an open-source software provisioning, configuration management, and application-deployment tool.&lt;br&gt;&lt;span style=&quot;letter-spacing: -0.06px;&quot;&gt;&lt;br&gt;Ansible can be installed on many Unix-like systems (Linux) and you can configure any Unix-like systems as well as Microsoft windows system by using Ansible.&lt;/span&gt;&lt;br&gt;&lt;/span&gt;" style="text;whiteSpace=wrap;html=1;fontSize=18;" vertex="1" parent="1">
          <mxGeometry x="55" y="2610" width="990" height="100" as="geometry" />
        </mxCell>
        <mxCell id="Aghm7gq7efIWi6fhhCrB-113" value="Admin" style="shape=umlActor;verticalLabelPosition=bottom;verticalAlign=top;html=1;outlineConnect=0;fontSize=18;" vertex="1" parent="1">
          <mxGeometry x="74" y="2840" width="50" height="90" as="geometry" />
        </mxCell>
        <mxCell id="Aghm7gq7efIWi6fhhCrB-114" value="Task Scripts" style="swimlane;fontStyle=0;childLayout=stackLayout;horizontal=1;startSize=30;horizontalStack=0;resizeParent=1;resizeParentMax=0;resizeLast=0;collapsible=1;marginBottom=0;fontSize=18;strokeColor=default;" vertex="1" parent="1">
          <mxGeometry x="254" y="2840" width="140" height="120" as="geometry" />
        </mxCell>
        <mxCell id="Aghm7gq7efIWi6fhhCrB-115" value="Task 1" style="text;strokeColor=none;fillColor=none;align=left;verticalAlign=middle;spacingLeft=4;spacingRight=4;overflow=hidden;points=[[0,0.5],[1,0.5]];portConstraint=eastwest;rotatable=0;fontSize=18;" vertex="1" parent="Aghm7gq7efIWi6fhhCrB-114">
          <mxGeometry y="30" width="140" height="30" as="geometry" />
        </mxCell>
        <mxCell id="Aghm7gq7efIWi6fhhCrB-116" value="Task 2" style="text;strokeColor=none;fillColor=none;align=left;verticalAlign=middle;spacingLeft=4;spacingRight=4;overflow=hidden;points=[[0,0.5],[1,0.5]];portConstraint=eastwest;rotatable=0;fontSize=18;" vertex="1" parent="Aghm7gq7efIWi6fhhCrB-114">
          <mxGeometry y="60" width="140" height="30" as="geometry" />
        </mxCell>
        <mxCell id="Aghm7gq7efIWi6fhhCrB-117" value="Task 3" style="text;strokeColor=none;fillColor=none;align=left;verticalAlign=middle;spacingLeft=4;spacingRight=4;overflow=hidden;points=[[0,0.5],[1,0.5]];portConstraint=eastwest;rotatable=0;fontSize=18;" vertex="1" parent="Aghm7gq7efIWi6fhhCrB-114">
          <mxGeometry y="90" width="140" height="30" as="geometry" />
        </mxCell>
        <mxCell id="Aghm7gq7efIWi6fhhCrB-118" value="Server 1" style="rounded=1;whiteSpace=wrap;html=1;fontSize=18;strokeColor=#82b366;fillColor=#d5e8d4;" vertex="1" parent="1">
          <mxGeometry x="694" y="2780" width="120" height="60" as="geometry" />
        </mxCell>
        <mxCell id="Aghm7gq7efIWi6fhhCrB-119" value="Server 2" style="rounded=1;whiteSpace=wrap;html=1;fontSize=18;strokeColor=#82b366;fillColor=#d5e8d4;" vertex="1" parent="1">
          <mxGeometry x="694" y="2885" width="120" height="60" as="geometry" />
        </mxCell>
        <mxCell id="Aghm7gq7efIWi6fhhCrB-120" value="Server 3" style="rounded=1;whiteSpace=wrap;html=1;fontSize=18;strokeColor=#82b366;fillColor=#d5e8d4;" vertex="1" parent="1">
          <mxGeometry x="694" y="2995" width="120" height="60" as="geometry" />
        </mxCell>
        <mxCell id="Aghm7gq7efIWi6fhhCrB-121" value="" style="endArrow=classic;html=1;rounded=0;fontSize=18;entryX=0;entryY=0.5;entryDx=0;entryDy=0;" edge="1" parent="1">
          <mxGeometry width="50" height="50" relative="1" as="geometry">
            <mxPoint x="404" y="2890" as="sourcePoint" />
            <mxPoint x="668" y="2810" as="targetPoint" />
          </mxGeometry>
        </mxCell>
        <mxCell id="Aghm7gq7efIWi6fhhCrB-122" value="" style="endArrow=classic;html=1;rounded=0;fontSize=18;entryX=0;entryY=0.5;entryDx=0;entryDy=0;" edge="1" parent="1">
          <mxGeometry width="50" height="50" relative="1" as="geometry">
            <mxPoint x="404" y="2905" as="sourcePoint" />
            <mxPoint x="668" y="2905" as="targetPoint" />
          </mxGeometry>
        </mxCell>
        <mxCell id="Aghm7gq7efIWi6fhhCrB-123" value="" style="endArrow=classic;html=1;rounded=0;fontSize=18;entryX=0;entryY=0.75;entryDx=0;entryDy=0;" edge="1" parent="1">
          <mxGeometry width="50" height="50" relative="1" as="geometry">
            <mxPoint x="404" y="2920" as="sourcePoint" />
            <mxPoint x="668" y="3015" as="targetPoint" />
          </mxGeometry>
        </mxCell>
        <mxCell id="Aghm7gq7efIWi6fhhCrB-124" value="" style="endArrow=classic;html=1;rounded=0;fontSize=18;" edge="1" parent="1">
          <mxGeometry width="50" height="50" relative="1" as="geometry">
            <mxPoint x="134" y="2895" as="sourcePoint" />
            <mxPoint x="244" y="2895" as="targetPoint" />
          </mxGeometry>
        </mxCell>
        <mxCell id="Aghm7gq7efIWi6fhhCrB-125" value="ssh" style="text;strokeColor=none;fillColor=none;align=left;verticalAlign=middle;spacingLeft=4;spacingRight=4;overflow=hidden;points=[[0,0.5],[1,0.5]];portConstraint=eastwest;rotatable=0;fontSize=18;" vertex="1" parent="1">
          <mxGeometry x="510" y="2810" width="80" height="30" as="geometry" />
        </mxCell>
        <mxCell id="Aghm7gq7efIWi6fhhCrB-126" value="ssh" style="text;strokeColor=none;fillColor=none;align=left;verticalAlign=middle;spacingLeft=4;spacingRight=4;overflow=hidden;points=[[0,0.5],[1,0.5]];portConstraint=eastwest;rotatable=0;fontSize=18;" vertex="1" parent="1">
          <mxGeometry x="520" y="2870" width="80" height="30" as="geometry" />
        </mxCell>
        <mxCell id="Aghm7gq7efIWi6fhhCrB-127" value="ssh" style="text;strokeColor=none;fillColor=none;align=left;verticalAlign=middle;spacingLeft=4;spacingRight=4;overflow=hidden;points=[[0,0.5],[1,0.5]];portConstraint=eastwest;rotatable=0;fontSize=18;" vertex="1" parent="1">
          <mxGeometry x="520" y="2945" width="80" height="30" as="geometry" />
        </mxCell>
        <mxCell id="Aghm7gq7efIWi6fhhCrB-131" value="Server 1" style="rounded=1;whiteSpace=wrap;html=1;fontSize=18;strokeColor=#82b366;fillColor=#d5e8d4;" vertex="1" parent="1">
          <mxGeometry x="936" y="3690" width="120" height="60" as="geometry" />
        </mxCell>
        <mxCell id="Aghm7gq7efIWi6fhhCrB-132" value="Server 2" style="rounded=1;whiteSpace=wrap;html=1;fontSize=18;strokeColor=#82b366;fillColor=#d5e8d4;" vertex="1" parent="1">
          <mxGeometry x="936" y="3795" width="120" height="60" as="geometry" />
        </mxCell>
        <mxCell id="Aghm7gq7efIWi6fhhCrB-133" value="Server 3" style="rounded=1;whiteSpace=wrap;html=1;fontSize=18;strokeColor=#82b366;fillColor=#d5e8d4;" vertex="1" parent="1">
          <mxGeometry x="936" y="3905" width="120" height="60" as="geometry" />
        </mxCell>
        <mxCell id="Aghm7gq7efIWi6fhhCrB-134" value="" style="endArrow=classic;html=1;rounded=0;fontSize=18;entryX=0;entryY=0.5;entryDx=0;entryDy=0;" edge="1" parent="1">
          <mxGeometry width="50" height="50" relative="1" as="geometry">
            <mxPoint x="646" y="3800" as="sourcePoint" />
            <mxPoint x="910" y="3720" as="targetPoint" />
          </mxGeometry>
        </mxCell>
        <mxCell id="Aghm7gq7efIWi6fhhCrB-135" value="" style="endArrow=classic;html=1;rounded=0;fontSize=18;entryX=0;entryY=0.5;entryDx=0;entryDy=0;" edge="1" parent="1">
          <mxGeometry width="50" height="50" relative="1" as="geometry">
            <mxPoint x="646" y="3815" as="sourcePoint" />
            <mxPoint x="910" y="3815" as="targetPoint" />
          </mxGeometry>
        </mxCell>
        <mxCell id="Aghm7gq7efIWi6fhhCrB-136" value="" style="endArrow=classic;html=1;rounded=0;fontSize=18;entryX=0;entryY=0.75;entryDx=0;entryDy=0;" edge="1" parent="1">
          <mxGeometry width="50" height="50" relative="1" as="geometry">
            <mxPoint x="646" y="3830" as="sourcePoint" />
            <mxPoint x="910" y="3925" as="targetPoint" />
          </mxGeometry>
        </mxCell>
        <mxCell id="Aghm7gq7efIWi6fhhCrB-137" value="ssh" style="text;strokeColor=none;fillColor=none;align=left;verticalAlign=middle;spacingLeft=4;spacingRight=4;overflow=hidden;points=[[0,0.5],[1,0.5]];portConstraint=eastwest;rotatable=0;fontSize=18;" vertex="1" parent="1">
          <mxGeometry x="752" y="3720" width="80" height="30" as="geometry" />
        </mxCell>
        <mxCell id="Aghm7gq7efIWi6fhhCrB-138" value="ssh" style="text;strokeColor=none;fillColor=none;align=left;verticalAlign=middle;spacingLeft=4;spacingRight=4;overflow=hidden;points=[[0,0.5],[1,0.5]];portConstraint=eastwest;rotatable=0;fontSize=18;" vertex="1" parent="1">
          <mxGeometry x="762" y="3780" width="80" height="30" as="geometry" />
        </mxCell>
        <mxCell id="Aghm7gq7efIWi6fhhCrB-139" value="ssh" style="text;strokeColor=none;fillColor=none;align=left;verticalAlign=middle;spacingLeft=4;spacingRight=4;overflow=hidden;points=[[0,0.5],[1,0.5]];portConstraint=eastwest;rotatable=0;fontSize=18;" vertex="1" parent="1">
          <mxGeometry x="762" y="3855" width="80" height="30" as="geometry" />
        </mxCell>
        <mxCell id="Aghm7gq7efIWi6fhhCrB-141" value="&lt;font style=&quot;font-size: 18px;&quot;&gt;Ansible - Key Terminology&lt;/font&gt;" style="rounded=0;whiteSpace=wrap;html=1;fillColor=#dae8fc;strokeColor=#6c8ebf;" vertex="1" parent="1">
          <mxGeometry x="33" y="3330" width="547" height="40" as="geometry" />
        </mxCell>
        <mxCell id="Aghm7gq7efIWi6fhhCrB-142" value="Control Node" style="rounded=1;whiteSpace=wrap;html=1;fontSize=18;strokeColor=#2D7600;fillColor=#60a917;fontColor=#ffffff;" vertex="1" parent="1">
          <mxGeometry x="10" y="3578" width="120" height="60" as="geometry" />
        </mxCell>
        <mxCell id="Aghm7gq7efIWi6fhhCrB-146" value="Hosts / Managed Nodes" style="rounded=1;whiteSpace=wrap;html=1;fontSize=18;strokeColor=#82b366;fillColor=#d5e8d4;" vertex="1" parent="1">
          <mxGeometry x="890" y="3635" width="200" height="20" as="geometry" />
        </mxCell>
        <mxCell id="Aghm7gq7efIWi6fhhCrB-147" value="Inventories" style="ellipse;whiteSpace=wrap;html=1;fontSize=18;strokeColor=#d6b656;fillColor=#fff2cc;" vertex="1" parent="1">
          <mxGeometry x="700" y="3450" width="120" height="80" as="geometry" />
        </mxCell>
        <mxCell id="Aghm7gq7efIWi6fhhCrB-148" value="Playbook" style="ellipse;whiteSpace=wrap;html=1;fontSize=18;strokeColor=#6c8ebf;fillColor=#dae8fc;" vertex="1" parent="1">
          <mxGeometry x="67" y="3760" width="120" height="80" as="geometry" />
        </mxCell>
        <mxCell id="Aghm7gq7efIWi6fhhCrB-149" value="Modules" style="ellipse;whiteSpace=wrap;html=1;fontSize=18;strokeColor=#6c8ebf;fillColor=#dae8fc;" vertex="1" parent="1">
          <mxGeometry x="74" y="3905" width="120" height="80" as="geometry" />
        </mxCell>
        <mxCell id="Aghm7gq7efIWi6fhhCrB-150" value="Playbook" style="ellipse;whiteSpace=wrap;html=1;fontSize=18;strokeColor=#6c8ebf;fillColor=#dae8fc;" vertex="1" parent="1">
          <mxGeometry x="425" y="4220" width="120" height="80" as="geometry" />
        </mxCell>
        <mxCell id="Aghm7gq7efIWi6fhhCrB-151" value="Play" style="ellipse;whiteSpace=wrap;html=1;fontSize=18;strokeColor=#6c8ebf;fillColor=#dae8fc;" vertex="1" parent="1">
          <mxGeometry x="226" y="4350" width="120" height="80" as="geometry" />
        </mxCell>
        <mxCell id="Aghm7gq7efIWi6fhhCrB-152" value="Play" style="ellipse;whiteSpace=wrap;html=1;fontSize=18;strokeColor=#6c8ebf;fillColor=#dae8fc;" vertex="1" parent="1">
          <mxGeometry x="427" y="4350" width="120" height="80" as="geometry" />
        </mxCell>
        <mxCell id="Aghm7gq7efIWi6fhhCrB-153" value="Play" style="ellipse;whiteSpace=wrap;html=1;fontSize=18;strokeColor=#6c8ebf;fillColor=#dae8fc;" vertex="1" parent="1">
          <mxGeometry x="620" y="4350" width="120" height="80" as="geometry" />
        </mxCell>
        <mxCell id="Aghm7gq7efIWi6fhhCrB-154" value="Task" style="ellipse;whiteSpace=wrap;html=1;fontSize=18;strokeColor=#6c8ebf;fillColor=#dae8fc;" vertex="1" parent="1">
          <mxGeometry x="632" y="4490" width="120" height="80" as="geometry" />
        </mxCell>
        <mxCell id="Aghm7gq7efIWi6fhhCrB-155" value="Task" style="ellipse;whiteSpace=wrap;html=1;fontSize=18;strokeColor=#6c8ebf;fillColor=#dae8fc;" vertex="1" parent="1">
          <mxGeometry x="232.5" y="4510" width="120" height="80" as="geometry" />
        </mxCell>
        <mxCell id="Aghm7gq7efIWi6fhhCrB-156" value="Task" style="ellipse;whiteSpace=wrap;html=1;fontSize=18;strokeColor=#6c8ebf;fillColor=#dae8fc;" vertex="1" parent="1">
          <mxGeometry x="436" y="4555" width="120" height="80" as="geometry" />
        </mxCell>
        <mxCell id="Aghm7gq7efIWi6fhhCrB-157" value="Module" style="ellipse;whiteSpace=wrap;html=1;fontSize=18;strokeColor=#6c8ebf;fillColor=#dae8fc;" vertex="1" parent="1">
          <mxGeometry x="232.5" y="4640" width="120" height="80" as="geometry" />
        </mxCell>
        <mxCell id="Aghm7gq7efIWi6fhhCrB-158" value="Notify" style="ellipse;whiteSpace=wrap;html=1;fontSize=18;strokeColor=#6c8ebf;fillColor=#dae8fc;" vertex="1" parent="1">
          <mxGeometry x="446" y="4685" width="120" height="80" as="geometry" />
        </mxCell>
        <mxCell id="Aghm7gq7efIWi6fhhCrB-159" value="Handler" style="ellipse;whiteSpace=wrap;html=1;fontSize=18;strokeColor=#6c8ebf;fillColor=#dae8fc;" vertex="1" parent="1">
          <mxGeometry x="642" y="4620" width="120" height="80" as="geometry" />
        </mxCell>
        <mxCell id="Aghm7gq7efIWi6fhhCrB-160" value="" style="endArrow=classic;html=1;rounded=0;fontSize=18;entryX=0.606;entryY=-0.017;entryDx=0;entryDy=0;entryPerimeter=0;" edge="1" parent="1" source="Aghm7gq7efIWi6fhhCrB-150" target="Aghm7gq7efIWi6fhhCrB-151">
          <mxGeometry width="50" height="50" relative="1" as="geometry">
            <mxPoint x="570" y="4350" as="sourcePoint" />
            <mxPoint x="620" y="4300" as="targetPoint" />
          </mxGeometry>
        </mxCell>
        <mxCell id="Aghm7gq7efIWi6fhhCrB-161" value="" style="endArrow=classic;html=1;rounded=0;fontSize=18;exitX=0.5;exitY=1;exitDx=0;exitDy=0;" edge="1" parent="1" source="Aghm7gq7efIWi6fhhCrB-150" target="Aghm7gq7efIWi6fhhCrB-152">
          <mxGeometry width="50" height="50" relative="1" as="geometry">
            <mxPoint x="446.12852442453914" y="4293.205161064608" as="sourcePoint" />
            <mxPoint x="308.72" y="4358.64" as="targetPoint" />
          </mxGeometry>
        </mxCell>
        <mxCell id="Aghm7gq7efIWi6fhhCrB-162" value="" style="endArrow=classic;html=1;rounded=0;fontSize=18;exitX=1;exitY=1;exitDx=0;exitDy=0;" edge="1" parent="1" source="Aghm7gq7efIWi6fhhCrB-150" target="Aghm7gq7efIWi6fhhCrB-153">
          <mxGeometry width="50" height="50" relative="1" as="geometry">
            <mxPoint x="495" y="4310" as="sourcePoint" />
            <mxPoint x="496.40301462661137" y="4360.001979982965" as="targetPoint" />
          </mxGeometry>
        </mxCell>
        <mxCell id="Aghm7gq7efIWi6fhhCrB-163" value="" style="endArrow=classic;html=1;rounded=0;fontSize=18;exitX=0.5;exitY=1;exitDx=0;exitDy=0;entryX=0.5;entryY=0;entryDx=0;entryDy=0;" edge="1" parent="1" source="Aghm7gq7efIWi6fhhCrB-152" target="Aghm7gq7efIWi6fhhCrB-156">
          <mxGeometry width="50" height="50" relative="1" as="geometry">
            <mxPoint x="537.4264068711927" y="4298.284271247462" as="sourcePoint" />
            <mxPoint x="647.5735931288073" y="4371.715728752538" as="targetPoint" />
          </mxGeometry>
        </mxCell>
        <mxCell id="Aghm7gq7efIWi6fhhCrB-164" value="" style="endArrow=classic;html=1;rounded=0;fontSize=18;entryX=1;entryY=0;entryDx=0;entryDy=0;exitX=0;exitY=1;exitDx=0;exitDy=0;" edge="1" parent="1" source="Aghm7gq7efIWi6fhhCrB-152" target="Aghm7gq7efIWi6fhhCrB-155">
          <mxGeometry width="50" height="50" relative="1" as="geometry">
            <mxPoint x="460" y="4420" as="sourcePoint" />
            <mxPoint x="530" y="4520" as="targetPoint" />
          </mxGeometry>
        </mxCell>
        <mxCell id="Aghm7gq7efIWi6fhhCrB-165" value="" style="endArrow=classic;html=1;rounded=0;fontSize=18;exitX=1;exitY=1;exitDx=0;exitDy=0;" edge="1" parent="1" source="Aghm7gq7efIWi6fhhCrB-152" target="Aghm7gq7efIWi6fhhCrB-154">
          <mxGeometry width="50" height="50" relative="1" as="geometry">
            <mxPoint x="497" y="4440" as="sourcePoint" />
            <mxPoint x="530" y="4520" as="targetPoint" />
          </mxGeometry>
        </mxCell>
        <mxCell id="Aghm7gq7efIWi6fhhCrB-166" value="" style="endArrow=classic;html=1;rounded=0;fontSize=18;entryX=0.5;entryY=0;entryDx=0;entryDy=0;exitX=0.5;exitY=1;exitDx=0;exitDy=0;" edge="1" parent="1" source="Aghm7gq7efIWi6fhhCrB-155" target="Aghm7gq7efIWi6fhhCrB-157">
          <mxGeometry width="50" height="50" relative="1" as="geometry">
            <mxPoint x="397.5" y="4440" as="sourcePoint" />
            <mxPoint x="344.92640687119274" y="4531.715728752538" as="targetPoint" />
          </mxGeometry>
        </mxCell>
        <mxCell id="Aghm7gq7efIWi6fhhCrB-167" value="" style="endArrow=classic;html=1;rounded=0;fontSize=18;exitX=0.5;exitY=1;exitDx=0;exitDy=0;" edge="1" parent="1" source="Aghm7gq7efIWi6fhhCrB-156" target="Aghm7gq7efIWi6fhhCrB-158">
          <mxGeometry width="50" height="50" relative="1" as="geometry">
            <mxPoint x="353" y="4645" as="sourcePoint" />
            <mxPoint x="353" y="4695" as="targetPoint" />
          </mxGeometry>
        </mxCell>
        <mxCell id="Aghm7gq7efIWi6fhhCrB-168" value="" style="endArrow=classic;html=1;rounded=0;fontSize=18;exitX=0.578;exitY=1.033;exitDx=0;exitDy=0;exitPerimeter=0;" edge="1" parent="1" source="Aghm7gq7efIWi6fhhCrB-154" target="Aghm7gq7efIWi6fhhCrB-159">
          <mxGeometry width="50" height="50" relative="1" as="geometry">
            <mxPoint x="532" y="4590" as="sourcePoint" />
            <mxPoint x="537.8309959672906" y="4640.096675686927" as="targetPoint" />
          </mxGeometry>
        </mxCell>
        <mxCell id="Aghm7gq7efIWi6fhhCrB-169" value="&lt;font style=&quot;font-size: 18px;&quot;&gt;Playbook Contains..&lt;/font&gt;" style="rounded=0;whiteSpace=wrap;html=1;fillColor=#ffe6cc;strokeColor=#d79b00;" vertex="1" parent="1">
          <mxGeometry x="19" y="4160" width="547" height="40" as="geometry" />
        </mxCell>
      </root>
    </mxGraphModel>
  </diagram>
</mxfile>
